<svg width="262" height="95" viewBox="0 0 262 95" fill="none" xmlns="http://www.w3.org/2000/svg">
<g filter="url(#filter0_d_539_96)">
<path d="M13.7561 0V0C32.3452 0 41.6398 0 48.4058 3.38973C56.3236 7.35651 62.2435 14.4272 64.7567 22.919C66.9042 30.1755 65.2703 39.3254 62.0025 57.6251L59.2846 72.8455H13.7561V0Z" fill="#91A6FA"/>
<path d="M4 7.15442V7.15442C22.5891 7.15442 31.8837 7.15442 38.6497 10.5441C46.5675 14.5109 52.4874 21.5816 55.0006 30.0734C57.1481 37.3299 55.5142 46.4798 52.2464 64.7795L49.5285 79.9999H4V7.15442Z" fill="#3939E6"/>
<path d="M16.0325 30.5691H44.9756" stroke="white"/>
<path d="M15.7073 39.6748H43.0244" stroke="white"/>
<path d="M15.7073 48.7805H39.122" stroke="white"/>
<path d="M15.7073 57.8862H33.2683" stroke="white"/>
<path d="M124.688 32.625H109.531V73H103.438V32.625H88.4062V27.1875H124.688V32.625ZM159.156 73H153.25C152.708 71.9583 152.323 70.5938 152.094 68.9062C148.323 72.1562 144.25 73.7812 139.875 73.7812C136.375 73.7812 133.615 72.9062 131.594 71.1562C129.573 69.4062 128.562 67.0938 128.562 64.2188C128.562 61.4688 129.531 59.2083 131.469 57.4375C133.427 55.6458 136.812 54.4583 141.625 53.875L146.875 53.0938C148.833 52.7812 150.448 52.3958 151.719 51.9375C151.719 50.25 151.667 49.0625 151.562 48.375C151.458 47.6667 151.146 46.9375 150.625 46.1875C150.125 45.4375 149.312 44.8333 148.188 44.375C147.062 43.9167 145.552 43.6875 143.656 43.6875C141.24 43.6875 139.323 44.1354 137.906 45.0312C136.51 45.9271 135.552 47.5938 135.031 50.0312L129.531 49.3125C130.135 45.9167 131.688 43.3646 134.188 41.6562C136.688 39.9479 140.125 39.0938 144.5 39.0938C148.479 39.0938 151.396 39.6875 153.25 40.875C155.125 42.0417 156.271 43.4583 156.688 45.125C157.125 46.7917 157.344 48.9375 157.344 51.5625V59.125C157.344 63.7292 157.427 66.8229 157.594 68.4062C157.781 69.9688 158.302 71.5 159.156 73ZM151.719 58.4062V56.375C148.781 57.3542 145.188 58.1354 140.938 58.7188C136.688 59.2812 134.562 61.0729 134.562 64.0938C134.562 65.6146 135.135 66.875 136.281 67.875C137.427 68.8542 139.073 69.3438 141.219 69.3438C143.99 69.3438 146.427 68.5208 148.531 66.875C150.656 65.2083 151.719 62.3854 151.719 58.4062ZM184.531 49.125C184.281 47.3125 183.542 45.9583 182.312 45.0625C181.104 44.1458 179.417 43.6875 177.25 43.6875C175.104 43.6875 173.365 44.0521 172.031 44.7812C170.719 45.5104 170.062 46.5729 170.062 47.9688C170.062 49.2812 170.583 50.2188 171.625 50.7812C172.688 51.3438 174.771 52.0312 177.875 52.8438C181.375 53.7396 183.99 54.5312 185.719 55.2188C187.469 55.9062 188.823 56.875 189.781 58.125C190.76 59.3542 191.25 61.0729 191.25 63.2812C191.25 66.2396 190.042 68.7292 187.625 70.75C185.208 72.7708 181.979 73.7812 177.938 73.7812C173.729 73.7812 170.438 72.8958 168.062 71.125C165.708 69.3333 164.26 66.6562 163.719 63.0938L169.312 62.25C169.604 64.5625 170.458 66.2917 171.875 67.4375C173.312 68.5833 175.312 69.1562 177.875 69.1562C180.333 69.1562 182.219 68.6458 183.531 67.625C184.844 66.5833 185.5 65.3229 185.5 63.8438C185.5 62.8438 185.198 62.0417 184.594 61.4375C183.99 60.8333 183.229 60.3854 182.312 60.0938C181.417 59.7812 179.385 59.2396 176.219 58.4688C171.51 57.3438 168.396 55.9792 166.875 54.375C165.375 52.7708 164.625 50.8542 164.625 48.625C164.625 45.8542 165.729 43.5729 167.938 41.7812C170.146 39.9896 173.115 39.0938 176.844 39.0938C180.802 39.0938 183.875 39.875 186.062 41.4375C188.271 42.9792 189.594 45.2917 190.031 48.375L184.531 49.125ZM225.5 73H218.594L207.562 56.0312L203.594 59.8125V73H197.969V27.1875H203.594V53.2812L216.906 39.8438H224.219L211.531 52.125L225.5 73ZM257.25 39.8438L244.562 73.5625C244.542 73.6042 244.521 73.6771 244.5 73.7812C243.292 77.5312 241.875 80.5729 240.25 82.9062C238.646 85.2604 236.354 86.4375 233.375 86.4375C232.375 86.4375 231.156 86.2292 229.719 85.8125L229.156 80.5C230.24 80.8333 231.302 81 232.344 81C234.427 81 235.865 80.4271 236.656 79.2812C237.469 78.1354 238.375 76.0625 239.375 73.0625L226.781 39.8438H232.844L240.656 61.5625C241.115 62.8958 241.604 64.6146 242.125 66.7188H242.25C242.771 64.3021 243.438 62 244.25 59.8125L251.531 39.8438H257.25Z" fill="#3939E6"/>
</g>
<defs>
<filter id="filter0_d_539_96" x="0" y="0" width="261.25" height="94.4375" filterUnits="userSpaceOnUse" color-interpolation-filters="sRGB">
<feFlood flood-opacity="0" result="BackgroundImageFix"/>
<feColorMatrix in="SourceAlpha" type="matrix" values="0 0 0 0 0 0 0 0 0 0 0 0 0 0 0 0 0 0 127 0" result="hardAlpha"/>
<feOffset dy="4"/>
<feGaussianBlur stdDeviation="2"/>
<feComposite in2="hardAlpha" operator="out"/>
<feColorMatrix type="matrix" values="0 0 0 0 0 0 0 0 0 0 0 0 0 0 0 0 0 0 0.25 0"/>
<feBlend mode="normal" in2="BackgroundImageFix" result="effect1_dropShadow_539_96"/>
<feBlend mode="normal" in="SourceGraphic" in2="effect1_dropShadow_539_96" result="shape"/>
</filter>
</defs>
</svg>
